<svg width="20" height="20" viewBox="0 0 20 20" fill="none" xmlns="http://www.w3.org/2000/svg">
<path fill-rule="evenodd" clip-rule="evenodd" d="M5 6V5C5 3.67392 5.52678 2.40215 6.46447 1.46447C7.40215 0.526784 8.67392 0 10 0C11.3261 0 12.5979 0.526784 13.5355 1.46447C14.4732 2.40215 15 3.67392 15 5V6H20V20H0V10C0 8.93913 0.421427 7.92172 1.17157 7.17157C1.92172 6.42143 2.93913 6 4 6H5ZM7 5C7 4.20435 7.31607 3.44129 7.87868 2.87868C8.44129 2.31607 9.20435 2 10 2C10.7956 2 11.5587 2.31607 12.1213 2.87868C12.6839 3.44129 13 4.20435 13 5V6H7V5ZM5 8V11H7V8H13V11H15V8H18V18H2V10C2 9.46957 2.21071 8.96086 2.58579 8.58579C2.96086 8.21071 3.46957 8 4 8H5Z" fill="#0D1421"/>
</svg>
