<svg width="18" height="14" viewBox="0 0 18 14" fill="none" xmlns="http://www.w3.org/2000/svg">
<path d="M1.5 3.66667L11.5 3.66667M11.5 3.66667C11.5 5.04738 12.6193 6.16667 14 6.16667C15.3807 6.16667 16.5 5.04738 16.5 3.66667C16.5 2.28596 15.3807 1.16667 14 1.16667C12.6193 1.16667 11.5 2.28596 11.5 3.66667ZM6.5 10.3333L16.5 10.3333M6.5 10.3333C6.5 11.7141 5.38071 12.8333 4 12.8333C2.61929 12.8333 1.5 11.7141 1.5 10.3333C1.5 8.95263 2.61929 7.83334 4 7.83334C5.38071 7.83334 6.5 8.95263 6.5 10.3333Z" stroke="#354153" stroke-width="2" stroke-linecap="round" stroke-linejoin="round"/>
</svg>
