<svg width="18" height="18" viewBox="0 0 18 18" fill="none" xmlns="http://www.w3.org/2000/svg">
<path fill-rule="evenodd" clip-rule="evenodd" d="M11.85 11.282C13.0253 10.6477 13.9555 9.63942 14.493 8.41681C15.0306 7.19421 15.1449 5.8272 14.8178 4.53231C14.4907 3.23742 13.7409 2.08868 12.6872 1.26805C11.6335 0.447422 10.3361 0.0018158 9.0005 0.0018158C7.66493 0.0018158 6.36755 0.447422 5.31384 1.26805C4.26013 2.08868 3.51034 3.23742 3.18324 4.53231C2.85613 5.8272 2.97041 7.19421 3.50798 8.41681C4.04555 9.63942 4.97566 10.6477 6.151 11.282C2.962 11.867 0 13.23 0 14V18H18V14C18 13.23 15.038 11.868 11.85 11.282ZM13 6C13 7.06087 12.5786 8.07828 11.8284 8.82843C11.0783 9.57857 10.0609 10 9 10C7.93913 10 6.92172 9.57857 6.17157 8.82843C5.42143 8.07828 5 7.06087 5 6C5 4.93913 5.42143 3.92172 6.17157 3.17157C6.92172 2.42143 7.93913 2 9 2C10.0609 2 11.0783 2.42143 11.8284 3.17157C12.5786 3.92172 13 4.93913 13 6ZM16 14.748V16H2V14.748C2.377 14.53 2.947 14.268 3.673 14.008C5.269 13.438 7.287 13 9 13C10.713 13 12.73 13.438 14.327 14.009C15.053 14.268 15.623 14.53 16 14.749V14.748Z" fill="#0D1421"/>
</svg>
